<?xml version="1.0" encoding="UTF-8" standalone="no"?>
<svg
   xmlns:dc="http://purl.org/dc/elements/1.1/"
   xmlns:cc="http://creativecommons.org/ns#"
   xmlns:rdf="http://www.w3.org/1999/02/22-rdf-syntax-ns#"
   xmlns:svg="http://www.w3.org/2000/svg"
   xmlns="http://www.w3.org/2000/svg"
   xmlns:sodipodi="http://sodipodi.sourceforge.net/DTD/sodipodi-0.dtd"
   xmlns:inkscape="http://www.inkscape.org/namespaces/inkscape"
   id="checkmark"
   width="305.002px"
   height="305.002px"
   version="1.1"
   sodipodi:docname="undefined.svg"
   inkscape:version="1.0.1 (3bc2e813f5, 2020-09-07)">
  <metadata
     id="metadata11">
    <rdf:RDF>
      <cc:Work
         rdf:about="">
        <dc:format>image/svg+xml</dc:format>
        <dc:type
           rdf:resource="http://purl.org/dc/dcmitype/StillImage" />
        <dc:title></dc:title>
      </cc:Work>
    </rdf:RDF>
  </metadata>
  <defs
     id="defs9" />
  <sodipodi:namedview
     pagecolor="#ffffff"
     bordercolor="#666666"
     borderopacity="1"
     objecttolerance="10"
     gridtolerance="10"
     guidetolerance="10"
     inkscape:pageopacity="0"
     inkscape:pageshadow="2"
     inkscape:window-width="1366"
     inkscape:window-height="715"
     id="namedview7"
     showgrid="false"
     inkscape:pagecheckerboard="true"
     inkscape:zoom="0.72181863"
     inkscape:cx="122.92405"
     inkscape:cy="147.01348"
     inkscape:window-x="0"
     inkscape:window-y="0"
     inkscape:window-maximized="1"
     inkscape:current-layer="checkmark"
     inkscape:document-rotation="0" />
  <g
     id="g112"
     style="fill:#0000ff">
    <path
       d="M 152.50201,0.00100708 C 68.412007,0.00100708 7.0800781e-6,68.412007 7.0800781e-6,152.50101 c 0,84.089 68.4119999199219,152.5 152.5020029199219,152.5 84.089,0 152.5,-68.411 152.5,-152.5 0,-84.089003 -68.411,-152.50000292 -152.5,-152.50000292 z m 0,280.00000292 c -70.305003,0 -127.502003,-57.195 -127.502003,-127.5 0,-70.304003 57.197,-127.500003 127.502003,-127.500003 70.304,0 127.5,57.196 127.5,127.500003 0,70.305 -57.196,127.5 -127.5,127.5 z"
       fill="#ffffff"
       id="path2"
       style="fill:#0000ff" />
    <g
       aria-label="?"
       id="text12"
       style="font-style:normal;font-weight:normal;font-size:303.75px;line-height:1.25;font-family:sans-serif;fill:#0000ff;fill-opacity:1;stroke:none;stroke-width:7.59375">
      <path
         d="M 161.69657,200.25857 H 134.1099 q 0.14831,-21.35742 5.7843,-32.03613 5.7843,-10.67871 19.87427,-25.21362 10.08544,-10.38208 17.64953,-19.42932 7.7124,-9.19556 7.7124,-24.323735 0,-15.276489 -8.15734,-24.175415 -8.15735,-8.898925 -23.58216,-8.898925 -13.05176,0 -23.28552,7.11914 -10.23377,6.970825 -10.38208,22.39563 H 92.284942 q 0.29664,-25.065308 17.797858,-39.303589 17.64953,-14.238281 43.3081,-14.238281 28.32825,0 43.75305,15.128174 15.57312,15.128174 15.57312,41.231689 0,19.874272 -11.5686,35.447392 -11.5686,15.57312 -25.65857,28.77319 -8.15735,7.56409 -10.97534,17.05627 -2.81799,9.49219 -2.81799,20.46753 z m -28.7732,47.016 q 0,-6.6742 4.15283,-11.27198 4.15284,-4.59778 12.01355,-4.59778 8.00904,0 12.16187,4.59778 4.15283,4.59778 4.15283,11.27198 0,6.37756 -4.15283,10.97534 -4.15283,4.59778 -12.16187,4.59778 -7.86071,0 -12.01355,-4.59778 -4.15283,-4.59778 -4.15283,-10.97534 z"
         style="fill:#0000ff;stroke-width:7.59375"
         id="path35" />
    </g>
  </g>
</svg>
