<?xml version="1.0" encoding="UTF-8" standalone="no"?>
<svg
   xmlns:dc="http://purl.org/dc/elements/1.1/"
   xmlns:cc="http://creativecommons.org/ns#"
   xmlns:rdf="http://www.w3.org/1999/02/22-rdf-syntax-ns#"
   xmlns:svg="http://www.w3.org/2000/svg"
   xmlns="http://www.w3.org/2000/svg"
   xmlns:sodipodi="http://sodipodi.sourceforge.net/DTD/sodipodi-0.dtd"
   xmlns:inkscape="http://www.inkscape.org/namespaces/inkscape"
   id="checkmark"
   width="305.002px"
   height="305.002px"
   version="1.1"
   sodipodi:docname="warning.svg"
   inkscape:version="1.0.1 (3bc2e813f5, 2020-09-07)">
  <metadata
     id="metadata11">
    <rdf:RDF>
      <cc:Work
         rdf:about="">
        <dc:format>image/svg+xml</dc:format>
        <dc:type
           rdf:resource="http://purl.org/dc/dcmitype/StillImage" />
        <dc:title />
      </cc:Work>
    </rdf:RDF>
  </metadata>
  <defs
     id="defs9" />
  <sodipodi:namedview
     pagecolor="#ffffff"
     bordercolor="#666666"
     borderopacity="1"
     objecttolerance="10"
     gridtolerance="10"
     guidetolerance="10"
     inkscape:pageopacity="0"
     inkscape:pageshadow="2"
     inkscape:window-width="1366"
     inkscape:window-height="715"
     id="namedview7"
     showgrid="false"
     inkscape:pagecheckerboard="true"
     inkscape:zoom="0.72181863"
     inkscape:cx="170.0273"
     inkscape:cy="135.75719"
     inkscape:window-x="0"
     inkscape:window-y="0"
     inkscape:window-maximized="1"
     inkscape:current-layer="checkmark"
     inkscape:document-rotation="0" />
  <g
     id="g10"
     style="fill:#ffff00">
    <path
       d="M152.502,0.001C68.412,0.001,0,68.412,0,152.501s68.412,152.5,152.502,152.5c84.089,0,152.5-68.411,152.5-152.5   S236.591,0.001,152.502,0.001z M152.502,280.001C82.197,280.001,25,222.806,25,152.501c0-70.304,57.197-127.5,127.502-127.5   c70.304,0,127.5,57.196,127.5,127.5C280.002,222.806,222.806,280.001,152.502,280.001z"
       fill="#ffffff"
       id="path2"
       style="fill:#ffff00" />
    <path
       d="m 170.10101,240.50101 h -35.2 v -35.2 h 35.2 z m 0,-70.4 h -35.2 V 64.501005 h 35.2 z"
       fill="#800000"
       id="path4-3"
       style="fill:#ffff00;stroke-width:17.6"
       sodipodi:nodetypes="cccccccccc" />
  </g>
</svg>
